<svg xmlns="http://www.w3.org/2000/svg" xmlns:xlink="http://www.w3.org/1999/xlink" width="1920" zoomAndPan="magnify" viewBox="0 0 1440 809.999993" height="1080" preserveAspectRatio="xMidYMid meet" version="1.2"><defs><clipPath id="cb92cb00dc"><path d="M 431 544 L 1008 544 L 1008 625.371094 L 431 625.371094 Z M 431 544 "/></clipPath><clipPath id="b8877867cb"><path d="M 303 184.371094 L 1136.933594 184.371094 L 1136.933594 571 L 303 571 Z M 303 184.371094 "/></clipPath></defs><g id="b3e90a7e38"><g clip-rule="nonzero" clip-path="url(#cb92cb00dc)"><path style=" stroke:none;fill-rule:nonzero;fill:#ffd630;fill-opacity:1;" d="M 719.746094 544.171875 C 719.726562 544.171875 719.707031 544.171875 719.6875 544.171875 C 719.667969 544.171875 719.648438 544.171875 719.628906 544.171875 C 719.535156 544.171875 719.453125 544.171875 719.359375 544.171875 C 568.972656 544.171875 465.542969 565.589844 431.523438 584.777344 C 465.589844 603.871094 568.902344 625.214844 719.15625 625.390625 L 720.21875 625.390625 C 870.472656 625.214844 973.785156 603.871094 1007.851562 584.777344 C 973.832031 565.589844 870.398438 544.171875 720.015625 544.171875 C 719.921875 544.171875 719.835938 544.171875 719.746094 544.171875 "/></g><g clip-rule="nonzero" clip-path="url(#b8877867cb)"><path style=" stroke:none;fill-rule:nonzero;fill:#ffd630;fill-opacity:1;" d="M 1094.988281 352.578125 C 1087.445312 358.914062 1088.550781 364.066406 1086.457031 369.792969 C 1085.304688 372.949219 1084.011719 377.058594 1078.363281 382.027344 C 1078.363281 382.027344 1005.542969 457.496094 956.773438 441.34375 C 884.511719 417.394531 924.167969 324.339844 924.167969 324.339844 L 931.617188 308.015625 C 935.328125 299.878906 946.402344 296.523438 950.882812 293.785156 C 959.046875 288.816406 961.742188 290.519531 966.578125 279.921875 C 974.414062 262.753906 967.082031 232.464844 964.714844 226.101562 C 957.777344 229.734375 929.054688 245.621094 921.230469 262.789062 C 916.390625 273.390625 922.417969 279.558594 924.65625 287.566406 C 925.882812 291.980469 927.800781 297.671875 924.089844 305.808594 L 916.648438 322.132812 C 916.648438 322.132812 872.160156 411.542969 805.800781 412.132812 C 724.714844 412.859375 724.417969 280.820312 724.417969 280.820312 C 724.417969 271.113281 729.4375 265.707031 733.039062 261.445312 C 739.578125 253.699219 749.402344 249.070312 749.402344 236.410156 C 749.402344 216.449219 726.800781 191.703125 720.21875 184.914062 L 720.21875 184.792969 C 720.085938 184.652344 719.921875 184.476562 719.804688 184.359375 C 719.792969 184.378906 719.765625 184.40625 719.746094 184.425781 C 719.726562 184.410156 719.707031 184.386719 719.6875 184.367188 C 719.667969 184.386719 719.648438 184.410156 719.628906 184.425781 C 719.609375 184.40625 719.582031 184.378906 719.570312 184.359375 C 719.453125 184.476562 719.289062 184.652344 719.15625 184.792969 L 719.15625 184.914062 C 712.574219 191.703125 689.972656 216.449219 689.972656 236.410156 C 689.972656 249.070312 699.796875 253.699219 706.335938 261.445312 C 709.933594 265.707031 714.953125 271.113281 714.953125 280.820312 C 714.953125 280.820312 714.660156 412.859375 633.574219 412.132812 C 567.214844 411.542969 522.726562 322.132812 522.726562 322.132812 L 515.285156 305.808594 C 511.574219 297.671875 513.492188 291.980469 514.714844 287.566406 C 516.953125 279.558594 522.980469 273.390625 518.144531 262.789062 C 510.316406 245.621094 481.597656 229.734375 474.660156 226.101562 C 472.289062 232.464844 464.960938 262.753906 472.792969 279.921875 C 477.632812 290.519531 480.328125 288.816406 488.488281 293.785156 C 492.972656 296.523438 504.046875 299.878906 507.757812 308.015625 L 515.207031 324.339844 C 515.207031 324.339844 554.863281 417.394531 482.597656 441.34375 C 433.832031 457.496094 361.011719 382.027344 361.011719 382.027344 C 355.363281 377.058594 354.066406 372.949219 352.914062 369.792969 C 350.820312 364.066406 351.925781 358.914062 344.386719 352.578125 C 331.375 341.648438 307.992188 335.136719 303.132812 333.992188 C 304.449219 338.625 314.488281 360.9375 326.414062 371.410156 C 333.777344 377.875 340.695312 375.710938 346.886719 379.511719 C 416.050781 422.070312 421.546875 570.472656 421.546875 570.472656 L 422.144531 570.472656 C 431.765625 547.804688 561.054688 524.820312 719.242188 524.8125 C 719.3125 524.8125 720.058594 524.8125 720.132812 524.8125 C 878.320312 524.820312 1007.609375 547.804688 1017.226562 570.472656 L 1017.828125 570.472656 C 1017.828125 570.472656 1023.324219 422.070312 1092.484375 379.511719 C 1098.671875 375.710938 1105.597656 377.875 1112.960938 371.410156 C 1124.878906 360.9375 1134.925781 338.625 1136.238281 333.992188 C 1131.382812 335.136719 1107.996094 341.648438 1094.988281 352.578125 "/></g></g></svg>